<svg width="19" height="19" viewBox="0 0 19 19" fill="none" xmlns="http://www.w3.org/2000/svg">
<path d="M16.3495 6.2638L7.23706 15.3762C7.18416 15.4292 7.12135 15.4712 7.05221 15.4998C6.98307 15.5285 6.90896 15.5433 6.83412 15.5433C6.75927 15.5433 6.68516 15.5285 6.61602 15.4998C6.54688 15.4712 6.48407 15.4292 6.43118 15.3762L2.44449 11.3895C2.33762 11.2827 2.27759 11.1377 2.27759 10.9866C2.27759 10.8355 2.33762 10.6905 2.44449 10.5837C2.55136 10.4768 2.6963 10.4168 2.84743 10.4168C2.99856 10.4168 3.1435 10.4768 3.25037 10.5837L6.83412 14.1681L15.5436 5.45792C15.6505 5.35105 15.7954 5.29102 15.9465 5.29102C16.0977 5.29102 16.2426 5.35105 16.3495 5.45792C16.4564 5.56478 16.5164 5.70973 16.5164 5.86086C16.5164 6.01199 16.4564 6.15693 16.3495 6.2638Z" fill="#555555"/>
</svg>
