<svg xmlns="http://www.w3.org/2000/svg" width="143" height="52" viewBox="0 0 143 52" fill="none"><path d="M38.4182 27.1117C37.4777 27.1297 36.543 26.9604 35.6687 26.6135C34.9121 26.3074 34.2262 25.8499 33.6529 25.269C33.1099 24.7182 32.6844 24.0629 32.4022 23.3428C32.122 22.6169 31.9805 21.8447 31.9853 21.0665V20.6121C31.9811 19.8229 32.1283 19.0403 32.4189 18.3066C32.7125 17.5588 33.1576 16.8798 33.7262 16.3123C34.2947 15.7448 34.9746 15.301 35.7229 15.0088C37.458 14.3584 39.37 14.3584 41.1052 15.0088C41.8654 15.3116 42.5546 15.7687 43.1293 16.3513C43.6804 16.9108 44.1129 17.5759 44.4009 18.3066C44.6914 19.0403 44.8386 19.8229 44.8344 20.6121V21.0665C44.8344 21.8472 44.6873 22.6208 44.4009 23.347C44.1187 24.0671 43.6931 24.7224 43.1501 25.2731C42.5773 25.8536 41.8921 26.3111 41.1364 26.6177C40.2718 26.96 39.348 27.1279 38.4182 27.1117ZM38.4182 24.5331C39.0661 24.5528 39.7057 24.3833 40.2589 24.0453C40.7628 23.7228 41.1647 23.2638 41.4179 22.7216C41.6848 22.1235 41.8219 21.4755 41.8201 20.8205C41.8183 20.1654 41.6777 19.5182 41.4074 18.9215C41.1487 18.3763 40.7412 17.9152 40.2318 17.5916C39.6857 17.2549 39.0531 17.0854 38.4119 17.1038C37.7676 17.0868 37.1321 17.2562 36.5817 17.5916C36.0698 17.9144 35.6605 18.3765 35.4019 18.9236C35.1329 19.5205 34.9935 20.1675 34.9928 20.8222C34.9921 21.4768 35.1301 22.1242 35.3977 22.7216C35.6512 23.263 36.0531 23.7213 36.5567 24.0433C37.1163 24.3841 37.7633 24.5544 38.4182 24.5331Z" fill="white"></path><path d="M45.956 17.1475V14.9378H54.2754V17.1475H45.956ZM52.5849 26.851C51.6675 26.8826 50.7525 26.7412 49.8875 26.4341C49.2063 26.1707 48.6495 25.66 48.3282 25.0041C47.9891 24.3329 47.8196 23.4296 47.8196 22.2942V11.6234H50.6546L50.6337 22.4756C50.6061 22.7182 50.6336 22.964 50.7142 23.1945C50.7947 23.4251 50.9263 23.6345 51.0989 23.8072C51.2716 23.9799 51.4811 24.1114 51.7116 24.192C51.9422 24.2725 52.1879 24.3 52.4306 24.2725H54.2733V26.851H52.5849Z" fill="white"></path><path d="M55.7263 17.1892V14.9379H60.3831V17.1892H55.7263ZM58.4758 13.5288C57.8838 13.5288 57.4481 13.3787 57.1667 13.0743C56.8784 12.7468 56.7289 12.3199 56.7498 11.884C56.7325 11.4544 56.8819 11.0347 57.1667 10.7125C57.4446 10.411 57.881 10.2595 58.4758 10.2581C59.0706 10.2567 59.5042 10.4082 59.7765 10.7125C60.0597 11.0357 60.2088 11.4547 60.1934 11.884C60.2111 12.3194 60.062 12.7451 59.7765 13.0743C59.5014 13.3787 59.0678 13.5288 58.4758 13.5288ZM57.371 26.6989V14.9379H60.3831V26.6989H57.371Z" fill="white"></path><path d="M69.0465 27.1117C68.1398 27.132 67.2392 26.9578 66.4054 26.601C65.6862 26.2878 65.0486 25.8135 64.5418 25.2148C64.0542 24.6365 63.6795 23.9718 63.437 23.2553C63.1938 22.5468 63.0691 21.8031 63.068 21.054V20.6371C63.0649 19.8569 63.1932 19.0817 63.4474 18.3441C63.693 17.6272 64.0761 16.9652 64.5752 16.395C65.0908 15.8119 65.7256 15.3463 66.4367 15.0297C67.2895 14.6796 68.2047 14.5068 69.1264 14.5219C70.0482 14.537 70.9572 14.7395 71.7981 15.1172C72.5793 15.4936 73.2479 16.0687 73.7368 16.7849C74.229 17.5182 74.5102 18.3727 74.5497 19.255H71.6022C71.539 18.6781 71.2704 18.1432 70.8455 17.7479C70.4119 17.331 69.8053 17.1226 69.0257 17.1226C68.4433 17.1031 67.8699 17.2704 67.3893 17.5999C66.9389 17.9301 66.5966 18.3864 66.4054 18.9111C66.1783 19.5245 66.068 20.1749 66.0802 20.8289C66.0724 21.4678 66.1783 22.1031 66.3929 22.705C66.5739 23.2561 66.9326 23.7317 67.4128 24.0572C67.893 24.3827 68.4675 24.5398 69.0465 24.5039C69.5173 24.5175 69.9848 24.4211 70.4119 24.2225C70.775 24.0456 71.0849 23.776 71.3104 23.4408C71.5369 23.1055 71.6746 22.7182 71.7106 22.3152H74.6581C74.6194 23.2105 74.3306 24.0771 73.8243 24.8166C73.3211 25.5357 72.6422 26.1141 71.8523 26.4968C70.9775 26.9167 70.0168 27.1272 69.0465 27.1117Z" fill="white"></path><path d="M82.3251 27.1116C81.4133 27.1309 80.5082 26.9531 79.6714 26.5905C78.9505 26.2694 78.3097 25.7924 77.7953 25.1938C77.3017 24.6163 76.9199 23.9518 76.6697 23.2344C76.4184 22.5248 76.2901 21.7775 76.2903 21.0247V20.6078C76.2854 19.8377 76.4109 19.0723 76.6613 18.344C76.9057 17.6293 77.2842 16.9678 77.7766 16.395C78.2876 15.8115 78.9201 15.3469 79.6297 15.0337C80.4394 14.6819 81.3153 14.5084 82.1979 14.5251C83.4667 14.5251 84.5312 14.8031 85.3914 15.3589C86.2299 15.8925 86.9016 16.6509 87.3301 17.5477C87.7659 18.4584 87.9884 19.4565 87.9804 20.4661V21.5709H77.5577V19.7031H86.071L85.16 20.612C85.1762 19.9534 85.0622 19.2982 84.8244 18.6838C84.6271 18.1828 84.2835 17.7528 83.8384 17.4497C83.3454 17.1451 82.7729 16.9942 82.1937 17.0162C81.596 16.9976 81.0066 17.1604 80.5032 17.4831C80.0337 17.8065 79.6709 18.2622 79.4609 18.7922C79.2077 19.4406 79.0865 20.133 79.1044 20.8288C79.0922 21.4988 79.2097 22.1649 79.4505 22.7904C79.6621 23.3338 80.0316 23.8014 80.5115 24.1328C81.0545 24.4764 81.6893 24.6465 82.3313 24.6206C82.9512 24.6464 83.5654 24.4937 84.1011 24.1807C84.5217 23.9376 84.8378 23.548 84.9891 23.0864H87.7845C87.6251 23.863 87.2828 24.5905 86.786 25.2084C86.2839 25.8231 85.6401 26.3066 84.9099 26.6176C84.0917 26.9593 83.2116 27.1275 82.3251 27.1116Z" fill="white"></path><path d="M90.7299 26.8073V10.7792H93.74V26.8073H90.7299ZM93.3064 19.4217V17.5456H96.6855C97.4234 17.5456 97.9633 17.3497 98.3114 16.9599C98.6716 16.5305 98.8569 15.9813 98.8305 15.4215C98.8613 14.8484 98.6761 14.2846 98.3114 13.8414C97.9633 13.4516 97.4234 13.2556 96.6855 13.2556H93.3064V10.7792H96.4041C98.194 10.7792 99.5552 11.1544 100.488 11.9049C101.42 12.6553 101.886 13.7309 101.884 15.1317V15.4569C101.884 16.4394 101.649 17.2232 101.18 17.8083C100.679 18.4158 100.001 18.8528 99.2411 19.059C98.3183 19.3186 97.3626 19.4429 96.4041 19.428L93.3064 19.4217ZM93.3064 26.8073V24.3392H97.2671C97.9737 24.3392 98.5178 24.1307 98.9014 23.743C99.1004 23.5217 99.2537 23.2631 99.3524 22.9823C99.4512 22.7015 99.4934 22.4039 99.4767 22.1066C99.4767 21.4118 99.2891 20.874 98.9139 20.4932C98.5386 20.1124 97.9897 19.9213 97.2671 19.9199H93.3064V18.0439H97.0586C98.0144 18.0297 98.967 18.1575 99.8853 18.4232C100.65 18.6327 101.332 19.0749 101.834 19.6886C102.303 20.2827 102.539 21.0748 102.539 22.0712V22.3672C102.562 23.2081 102.345 24.0382 101.914 24.7603C101.47 25.4436 100.826 25.9735 100.071 26.2778C99.1102 26.6572 98.0826 26.8373 97.0503 26.8073H93.3064Z" fill="white"></path><path d="M108.707 27.0032C107.939 27.0208 107.176 26.8647 106.477 26.5467C105.867 26.2664 105.351 25.8153 104.992 25.248C104.625 24.6336 104.442 23.9269 104.463 23.2114C104.429 22.4541 104.649 21.7071 105.088 21.0894C105.552 20.5093 106.177 20.0798 106.885 19.8553C107.765 19.563 108.689 19.422 109.616 19.4384H112.326V21.2624H109.574C108.88 21.2624 108.351 21.4291 107.982 21.7606C107.807 21.929 107.668 22.1309 107.573 22.3542C107.478 22.5775 107.429 22.8177 107.429 23.0603C107.429 23.303 107.478 23.5431 107.573 23.7664C107.668 23.9897 107.807 24.1916 107.982 24.36C108.351 24.6915 108.88 24.8582 109.574 24.8582C109.972 24.8627 110.367 24.7854 110.733 24.631C111.099 24.468 111.406 24.1956 111.611 23.8514C111.866 23.3899 112 22.8715 112.001 22.3443L112.737 23.1906C112.693 23.9207 112.489 24.6322 112.14 25.2751C111.829 25.8273 111.362 26.2759 110.798 26.5655C110.146 26.8761 109.429 27.0262 108.707 27.0032ZM112.499 26.6989V23.2114H112.001V19.3342C112.001 18.6713 111.835 18.1696 111.503 17.8291C111.169 17.4894 110.669 17.3205 109.985 17.3205C109.624 17.3205 109.191 17.3275 108.686 17.3413C108.182 17.3552 107.673 17.3733 107.158 17.3955C106.646 17.4192 106.187 17.4442 105.783 17.4706V14.9149C106.116 14.8878 106.487 14.8587 106.9 14.8295C107.313 14.8003 107.734 14.7815 108.188 14.7753C108.643 14.769 109.055 14.7648 109.439 14.7648C110.466 14.7343 111.491 14.8955 112.459 15.2401C113.218 15.5222 113.86 16.0526 114.279 16.7452C114.696 17.4331 114.905 18.3232 114.905 19.4217V26.6989H112.499Z" fill="white"></path><path d="M118.129 26.6988V14.9378H120.512V19.9199H120.447C120.447 18.2439 120.809 16.9695 121.531 16.0968C122.254 15.2241 123.315 14.787 124.714 14.7856H125.148V17.4059H124.314C123.304 17.4059 122.521 17.6838 121.965 18.2397C121.409 18.7956 121.131 19.5829 121.131 20.6015V26.7092L118.129 26.6988Z" fill="white"></path><path d="M131.952 27.0993C131.164 27.1107 130.383 26.9558 129.659 26.6448C128.983 26.3486 128.374 25.9173 127.87 25.3774C127.357 24.822 126.96 24.1701 126.701 23.4596C126.421 22.6967 126.279 21.8898 126.284 21.077V20.6121C126.278 19.8091 126.41 19.0109 126.674 18.2524C126.918 17.5419 127.301 16.8867 127.799 16.3242C128.289 15.7775 128.887 15.3382 129.555 15.0339C130.27 14.7165 131.046 14.5579 131.829 14.569C132.683 14.5513 133.526 14.7568 134.276 15.1652C134.997 15.5818 135.578 16.2037 135.944 16.9517C136.361 17.7452 136.589 18.7416 136.627 19.9409L135.739 18.9237V10.8877H138.772V26.699H136.39V21.717H136.909C136.904 22.7543 136.652 23.7755 136.173 24.6958C135.77 25.4521 135.157 26.076 134.407 26.4927C133.654 26.9001 132.809 27.1089 131.952 27.0993ZM132.623 24.5644C133.19 24.5699 133.749 24.4284 134.245 24.1538C134.736 23.8799 135.14 23.475 135.414 22.9844C135.721 22.4314 135.874 21.8069 135.858 21.175V20.3099C135.878 19.7 135.72 19.0976 135.404 18.5755C135.113 18.1108 134.702 17.7334 134.214 17.4832C133.724 17.2313 133.182 17.1011 132.631 17.1038C132.024 17.0921 131.425 17.2572 130.91 17.5791C130.408 17.9021 130.004 18.3553 129.74 18.8903C129.448 19.5014 129.306 20.1729 129.323 20.8498C129.306 21.5291 129.455 22.2024 129.757 22.8113C130.021 23.3464 130.432 23.7948 130.943 24.1035C131.453 24.4123 132.041 24.5686 132.638 24.554L132.623 24.5644Z" fill="white"></path><path d="M26.7927 6.9228H20.2327C20.2327 5.17177 18.465 3.7522 16.7139 3.7522C14.9629 3.7522 13.1973 5.17177 13.1973 6.9228H6.63723C5.98429 6.92224 5.35777 7.18066 4.89509 7.64139C4.43241 8.10212 4.17134 8.72753 4.16913 9.38048V29.5381C4.16913 29.8621 4.23298 30.1829 4.35704 30.4822C4.4811 30.7816 4.66293 31.0535 4.89215 31.2825C5.12136 31.5116 5.39346 31.6932 5.69289 31.817C5.99232 31.9408 6.31322 32.0044 6.63723 32.0041H26.7927C27.1167 32.0044 27.4376 31.9408 27.7371 31.817C28.0365 31.6932 28.3086 31.5116 28.5378 31.2825C28.767 31.0535 28.9489 30.7816 29.0729 30.4822C29.197 30.1829 29.2608 29.8621 29.2608 29.5381V9.38048C29.2586 8.72753 28.9976 8.10212 28.5349 7.64139C28.0722 7.18066 27.4457 6.92224 26.7927 6.9228ZM16.7139 8.59043C16.3841 8.59043 16.0617 8.49263 15.7874 8.30939C15.5132 8.12614 15.2995 7.86569 15.1732 7.56097C15.047 7.25625 15.014 6.92095 15.0783 6.59746C15.1427 6.27396 15.3015 5.97682 15.5347 5.7436C15.768 5.51037 16.0651 5.35155 16.3886 5.2872C16.7121 5.22285 17.0474 5.25588 17.3521 5.3821C17.6568 5.50832 17.9173 5.72206 18.1005 5.9963C18.2838 6.27055 18.3816 6.59297 18.3816 6.9228C18.3805 7.36436 18.2043 7.78746 17.8917 8.0993C17.579 8.41114 17.1555 8.58627 16.7139 8.58627V8.59043Z" fill="#2C00DB"></path><path d="M9.22009 27.91V11.9841H14.3043L20.9749 25.3356H21.717L21.2792 25.7296V11.9841H24.1976V27.91H19.0821L12.4115 14.5689H11.6736L12.1009 14.175V27.9205L9.22009 27.91Z" fill="white"></path><path d="M5.05298 45.3134V39.2265H5.87012V45.3134H5.05298ZM5.70336 42.6035V41.8697L8.31321 41.8614V42.5952L5.70336 42.6035ZM5.70336 39.9603V39.2265H8.45496V39.9603H5.70336ZM11.5718 45.4635C11.1827 45.4635 10.8408 45.3968 10.5462 45.2634C10.2516 45.13 10.0015 44.9549 9.79578 44.7381C9.59566 44.5157 9.4428 44.2684 9.33718 43.996C9.23712 43.7236 9.18709 43.4457 9.18709 43.1622V43.0121C9.18709 42.7286 9.2399 42.4506 9.34552 42.1783C9.45113 41.9003 9.60678 41.6529 9.81246 41.4362C10.0181 41.2138 10.2683 41.0387 10.5629 40.9109C10.8575 40.7774 11.1938 40.7107 11.5718 40.7107C11.9498 40.7107 12.2861 40.7774 12.5807 40.9109C12.8754 41.0387 13.1255 41.2138 13.3312 41.4362C13.5368 41.6529 13.6925 41.9003 13.7981 42.1783C13.9037 42.4506 13.9565 42.7286 13.9565 43.0121V43.1622C13.9565 43.4457 13.9037 43.7236 13.7981 43.996C13.6981 44.2684 13.5452 44.5157 13.3395 44.7381C13.1394 44.9549 12.892 45.13 12.5974 45.2634C12.3028 45.3968 11.9609 45.4635 11.5718 45.4635ZM11.5718 44.7464C11.9053 44.7464 12.1888 44.6742 12.4223 44.5296C12.6613 44.3795 12.842 44.1794 12.9643 43.9293C13.0921 43.6791 13.1561 43.3984 13.1561 43.0871C13.1561 42.7703 13.0921 42.4868 12.9643 42.2366C12.8364 41.9865 12.653 41.7891 12.414 41.6446C12.1805 41.5001 11.8998 41.4278 11.5718 41.4278C11.2494 41.4278 10.9687 41.5001 10.7297 41.6446C10.4906 41.7891 10.3072 41.9865 10.1793 42.2366C10.0515 42.4868 9.98756 42.7703 9.98756 43.0871C9.98756 43.3984 10.0487 43.6791 10.171 43.9293C10.2989 44.1794 10.4795 44.3795 10.713 44.5296C10.952 44.6742 11.2383 44.7464 11.5718 44.7464ZM15.1554 45.3134V40.8608H15.7891V42.6952H15.7558C15.7558 42.0448 15.8975 41.5696 16.181 41.2694C16.4701 40.9637 16.9009 40.8108 17.4734 40.8108H17.6235V41.5279H17.34C16.8953 41.5279 16.5534 41.6474 16.3144 41.8864C16.0754 42.1199 15.9559 42.459 15.9559 42.9037V45.3134H15.1554ZM23.2326 45.4635C22.6767 45.4635 22.2014 45.3662 21.8067 45.1717C21.4176 44.9771 21.1036 44.7242 20.8645 44.4129C20.6255 44.1016 20.4504 43.7653 20.3392 43.404C20.2281 43.0371 20.1725 42.6841 20.1725 42.345V42.1616C20.1725 41.7947 20.2281 41.4278 20.3392 41.0609C20.456 40.6941 20.6338 40.3605 20.8729 40.0604C21.1119 39.7602 21.4232 39.5184 21.8067 39.3349C22.1903 39.1515 22.6489 39.0598 23.1826 39.0598C23.7273 39.0598 24.1943 39.1543 24.5834 39.3433C24.9725 39.5323 25.281 39.7963 25.5089 40.1354C25.7368 40.4745 25.8758 40.8747 25.9258 41.3361H25.092C25.0475 40.9915 24.9364 40.708 24.7585 40.4856C24.5806 40.2577 24.3555 40.0881 24.0831 39.977C23.8163 39.8658 23.5161 39.8102 23.1826 39.8102C22.8212 39.8102 22.5044 39.8741 22.232 40.002C21.9596 40.1243 21.7317 40.2994 21.5483 40.5273C21.3704 40.7496 21.2342 41.0081 21.1397 41.3027C21.0508 41.5974 21.0063 41.917 21.0063 42.2616C21.0063 42.5896 21.0508 42.9009 21.1397 43.1955C21.2342 43.4901 21.3732 43.7514 21.5566 43.9793C21.7456 44.2072 21.9791 44.3879 22.257 44.5213C22.535 44.6491 22.8601 44.7131 23.2326 44.7131C23.7551 44.7131 24.1943 44.5824 24.55 44.3212C24.9058 44.0599 25.1226 43.6819 25.2004 43.1872H26.0342C25.9786 43.6041 25.8369 43.9849 25.609 44.3295C25.3866 44.6742 25.0753 44.9493 24.6751 45.155C24.2804 45.3607 23.7996 45.4635 23.2326 45.4635ZM29.152 45.4635C28.7629 45.4635 28.4211 45.3968 28.1264 45.2634C27.8318 45.13 27.5817 44.9549 27.376 44.7381C27.1759 44.5157 27.023 44.2684 26.9174 43.996C26.8174 43.7236 26.7673 43.4457 26.7673 43.1622V43.0121C26.7673 42.7286 26.8201 42.4506 26.9257 42.1783C27.0314 41.9003 27.187 41.6529 27.3927 41.4362C27.5984 41.2138 27.8485 41.0387 28.1431 40.9109C28.4377 40.7774 28.774 40.7107 29.152 40.7107C29.53 40.7107 29.8664 40.7774 30.161 40.9109C30.4556 41.0387 30.7057 41.2138 30.9114 41.4362C31.1171 41.6529 31.2727 41.9003 31.3783 42.1783C31.484 42.4506 31.5368 42.7286 31.5368 43.0121V43.1622C31.5368 43.4457 31.484 43.7236 31.3783 43.996C31.2783 44.2684 31.1254 44.5157 30.9197 44.7381C30.7196 44.9549 30.4723 45.13 30.1776 45.2634C29.883 45.3968 29.5412 45.4635 29.152 45.4635ZM29.152 44.7464C29.4856 44.7464 29.7691 44.6742 30.0025 44.5296C30.2416 44.3795 30.4222 44.1794 30.5445 43.9293C30.6724 43.6791 30.7363 43.3984 30.7363 43.0871C30.7363 42.7703 30.6724 42.4868 30.5445 42.2366C30.4167 41.9865 30.2332 41.7891 29.9942 41.6446C29.7607 41.5001 29.48 41.4278 29.152 41.4278C28.8296 41.4278 28.5489 41.5001 28.3099 41.6446C28.0709 41.7891 27.8874 41.9865 27.7596 42.2366C27.6317 42.4868 27.5678 42.7703 27.5678 43.0871C27.5678 43.3984 27.6289 43.6791 27.7512 43.9293C27.8791 44.1794 28.0597 44.3795 28.2932 44.5296C28.5322 44.6742 28.8185 44.7464 29.152 44.7464ZM32.7356 45.3134V40.8608H33.3693V42.7703H33.2693C33.2693 42.3367 33.3249 41.9698 33.4361 41.6696C33.5528 41.3639 33.7251 41.1304 33.953 40.9692C34.1809 40.808 34.47 40.7274 34.8202 40.7274H34.8535C35.2037 40.7274 35.4928 40.808 35.7207 40.9692C35.9542 41.1304 36.1265 41.3639 36.2377 41.6696C36.3489 41.9698 36.4044 42.3367 36.4044 42.7703H36.171C36.171 42.3367 36.2293 41.9698 36.3461 41.6696C36.4628 41.3639 36.6351 41.1304 36.863 40.9692C37.0965 40.808 37.3884 40.7274 37.7386 40.7274H37.7719C38.1221 40.7274 38.414 40.808 38.6474 40.9692C38.8809 41.1304 39.0532 41.3639 39.1644 41.6696C39.2811 41.9698 39.3395 42.3367 39.3395 42.7703V45.3134H38.539V42.5952C38.539 42.2338 38.4501 41.9559 38.2722 41.7613C38.0943 41.5612 37.847 41.4612 37.5301 41.4612C37.2021 41.4612 36.9381 41.5668 36.738 41.778C36.5379 41.9837 36.4378 42.2728 36.4378 42.6452V45.3134H35.6373V42.5952C35.6373 42.2338 35.5484 41.9559 35.3705 41.7613C35.1926 41.5612 34.9453 41.4612 34.6284 41.4612C34.3004 41.4612 34.0364 41.5668 33.8363 41.778C33.6362 41.9837 33.5361 42.2728 33.5361 42.6452V45.3134H32.7356ZM40.8051 46.9811V40.8608H41.4388V42.7869L41.2887 42.7703C41.3165 42.2922 41.4166 41.9031 41.5889 41.6029C41.7668 41.2972 41.9975 41.0721 42.281 40.9275C42.5645 40.783 42.873 40.7107 43.2065 40.7107C43.5289 40.7107 43.8208 40.7719 44.082 40.8942C44.3489 41.0165 44.5768 41.1832 44.7658 41.3945C44.9548 41.6057 45.0993 41.8503 45.1994 42.1282C45.2994 42.4062 45.3494 42.7008 45.3494 43.0121V43.1622C45.3494 43.4735 45.2966 43.7681 45.191 44.046C45.0854 44.324 44.9353 44.5685 44.7408 44.7798C44.5518 44.991 44.3238 45.1578 44.057 45.2801C43.7958 45.4024 43.5067 45.4635 43.1898 45.4635C42.873 45.4635 42.57 45.394 42.281 45.255C41.9919 45.1161 41.7529 44.8909 41.5639 44.5797C41.3749 44.2684 41.2665 43.8598 41.2387 43.3539L41.6056 44.021V46.9811H40.8051ZM43.0648 44.7631C43.3649 44.7631 43.6262 44.6936 43.8486 44.5546C44.0709 44.4101 44.2432 44.2128 44.3655 43.9626C44.4878 43.7069 44.549 43.4151 44.549 43.0871C44.549 42.7536 44.4878 42.4618 44.3655 42.2116C44.2432 41.9615 44.0709 41.7669 43.8486 41.6279C43.6262 41.4834 43.3649 41.4111 43.0648 41.4111C42.798 41.4111 42.5506 41.4723 42.3227 41.5946C42.0948 41.7113 41.9113 41.8836 41.7724 42.1115C41.6389 42.3339 41.5722 42.6035 41.5722 42.9204V43.3039C41.5722 43.6096 41.6417 43.8709 41.7807 44.0877C41.9197 44.3045 42.1031 44.4713 42.331 44.588C42.5589 44.7047 42.8035 44.7631 43.0648 44.7631ZM48.0965 45.4468C47.5684 45.4468 47.1626 45.2745 46.8791 44.9299C46.5956 44.5852 46.4539 44.0877 46.4539 43.4373V40.8525H47.2543V43.5957C47.2543 43.946 47.3488 44.2211 47.5378 44.4212C47.7268 44.6158 47.9825 44.7131 48.3049 44.7131C48.6385 44.7131 48.9108 44.6074 49.1221 44.3962C49.3333 44.1794 49.4389 43.8848 49.4389 43.5124V40.8525H50.2394V45.3134H49.6057V43.404H49.7058C49.7058 43.8431 49.6474 44.2156 49.5307 44.5213C49.4139 44.8215 49.2388 45.0522 49.0053 45.2134C48.7774 45.369 48.4856 45.4468 48.1298 45.4468H48.0965ZM53.5241 45.3634C53.1905 45.3634 52.9015 45.3162 52.6569 45.2217C52.4179 45.1272 52.2316 44.966 52.0982 44.7381C51.9704 44.5046 51.9065 44.1905 51.9065 43.7959V39.51H52.6736V43.8959C52.6736 44.135 52.7375 44.3212 52.8653 44.4546C52.9988 44.5824 53.185 44.6464 53.424 44.6464H54.2078V45.3634H53.5241ZM51.1393 41.4612V40.8608H54.2078V41.4612H51.1393ZM57.2002 45.4635C56.811 45.4635 56.4747 45.3968 56.1912 45.2634C55.9077 45.13 55.677 44.9549 55.4992 44.7381C55.3213 44.5157 55.1879 44.2684 55.0989 43.996C55.0156 43.7236 54.9739 43.4457 54.9739 43.1622V43.0121C54.9739 42.723 55.0156 42.4423 55.0989 42.1699C55.1879 41.8975 55.3213 41.6529 55.4992 41.4362C55.677 41.2138 55.9022 41.0387 56.1746 40.9109C56.4525 40.7774 56.7777 40.7107 57.1501 40.7107C57.6337 40.7107 58.0312 40.8164 58.3425 41.0276C58.6593 41.2333 58.8928 41.5001 59.0429 41.8281C59.1985 42.156 59.2764 42.5062 59.2764 42.8787V43.2372H55.3241V42.6369H58.6927L58.5093 42.962C58.5093 42.6452 58.4592 42.3728 58.3592 42.1449C58.2591 41.9114 58.109 41.7308 57.9089 41.6029C57.7088 41.4751 57.4559 41.4111 57.1501 41.4111C56.8333 41.4111 56.5692 41.4834 56.358 41.6279C56.1523 41.7725 55.9967 41.9698 55.8911 42.2199C55.791 42.4701 55.741 42.7591 55.741 43.0871C55.741 43.404 55.791 43.6902 55.8911 43.946C55.9967 44.1961 56.1579 44.3962 56.3747 44.5463C56.5915 44.6908 56.8666 44.7631 57.2002 44.7631C57.5504 44.7631 57.8339 44.6853 58.0507 44.5296C58.273 44.374 58.4064 44.1933 58.4509 43.9876H59.2013C59.1402 44.2934 59.0179 44.5574 58.8344 44.7798C58.651 45.0021 58.4203 45.1717 58.1424 45.2884C57.8644 45.4051 57.5504 45.4635 57.2002 45.4635ZM60.4129 45.3134V40.8608H61.0466V42.6952H61.0133C61.0133 42.0448 61.155 41.5696 61.4385 41.2694C61.7276 40.9637 62.1584 40.8108 62.7309 40.8108H62.881V41.5279H62.5975C62.1528 41.5279 61.8109 41.6474 61.5719 41.8864C61.3329 42.1199 61.2134 42.459 61.2134 42.9037V45.3134H60.4129ZM67.823 45.4635C67.3172 45.4635 66.8864 45.3801 66.5306 45.2134C66.1748 45.0466 65.9025 44.8159 65.7135 44.5213C65.5245 44.2267 65.43 43.8931 65.43 43.5207H66.2471C66.2471 43.7041 66.2943 43.8876 66.3888 44.071C66.4889 44.2545 66.6529 44.4073 66.8808 44.5296C67.1143 44.6519 67.4283 44.7131 67.823 44.7131C68.1899 44.7131 68.4901 44.6603 68.7235 44.5546C68.957 44.4435 69.1293 44.3017 69.2405 44.1294C69.3517 43.9515 69.4073 43.7597 69.4073 43.5541C69.4073 43.3039 69.2989 43.0982 69.0821 42.937C68.8653 42.7703 68.5484 42.6674 68.1315 42.6285L67.4561 42.5702C66.9169 42.5257 66.4861 42.3589 66.1637 42.0699C65.8413 41.7808 65.6801 41.4 65.6801 40.9275C65.6801 40.5551 65.769 40.2299 65.9469 39.952C66.1304 39.674 66.3833 39.4572 66.7057 39.3016C67.0281 39.1404 67.4033 39.0598 67.8314 39.0598C68.2538 39.0598 68.6263 39.1376 68.9487 39.2932C69.2711 39.4489 69.5212 39.6685 69.6991 39.952C69.8825 40.2299 69.9743 40.5634 69.9743 40.9525H69.1571C69.1571 40.758 69.1099 40.5745 69.0154 40.4022C68.9264 40.2299 68.7847 40.0881 68.5901 39.977C68.3956 39.8658 68.1426 39.8102 67.8314 39.8102C67.5312 39.8102 67.281 39.863 67.0809 39.9686C66.8864 40.0743 66.7391 40.2132 66.639 40.3855C66.5445 40.5523 66.4972 40.733 66.4972 40.9275C66.4972 41.1499 66.5834 41.3472 66.7557 41.5195C66.9281 41.6919 67.1838 41.7919 67.5228 41.8197L68.1982 41.8781C68.6151 41.9114 68.9737 42.0004 69.2739 42.1449C69.5796 42.2839 69.8131 42.4729 69.9743 42.7119C70.141 42.9454 70.2244 43.2261 70.2244 43.5541C70.2244 43.9265 70.1244 44.2572 69.9242 44.5463C69.7241 44.8354 69.4434 45.0605 69.0821 45.2217C68.7208 45.3829 68.3011 45.4635 67.823 45.4635ZM73.3884 45.4635C73.0048 45.4635 72.6713 45.3968 72.3878 45.2634C72.1098 45.13 71.8792 44.9521 71.6957 44.7297C71.5123 44.5018 71.3733 44.2517 71.2788 43.9793C71.1899 43.7069 71.1454 43.4345 71.1454 43.1622V43.0121C71.1454 42.7286 71.1899 42.4506 71.2788 42.1783C71.3733 41.9059 71.5123 41.6613 71.6957 41.4445C71.8847 41.2221 72.1182 41.0443 72.3961 40.9109C72.6741 40.7774 72.9993 40.7107 73.3717 40.7107C73.7441 40.7107 74.0777 40.7802 74.3723 40.9192C74.6724 41.0582 74.9115 41.2555 75.0894 41.5112C75.2728 41.7613 75.3756 42.0587 75.3979 42.4034H74.6308C74.5918 42.1254 74.464 41.8948 74.2472 41.7113C74.0304 41.5223 73.7386 41.4278 73.3717 41.4278C73.0548 41.4278 72.7908 41.5001 72.5796 41.6446C72.3683 41.7891 72.2099 41.9865 72.1043 42.2366C71.9987 42.4868 71.9459 42.7703 71.9459 43.0871C71.9459 43.3929 71.9987 43.6736 72.1043 43.9293C72.2099 44.1794 72.3683 44.3795 72.5796 44.5296C72.7964 44.6742 73.066 44.7464 73.3884 44.7464C73.6385 44.7464 73.8553 44.7019 74.0387 44.613C74.2222 44.5241 74.3695 44.4046 74.4807 44.2545C74.5918 44.1044 74.6586 43.9348 74.6808 43.7458H75.4479C75.4312 44.096 75.3284 44.399 75.1394 44.6547C74.9559 44.9104 74.7114 45.1105 74.4056 45.255C74.1055 45.394 73.7664 45.4635 73.3884 45.4635ZM76.7524 45.3134V40.8608H77.5528V45.3134H76.7524ZM76.0686 41.4945V40.8608H77.5528V41.4945H76.0686ZM76.9775 40.1437C76.7996 40.1437 76.6662 40.0965 76.5773 40.002C76.4939 39.9075 76.4522 39.788 76.4522 39.6434C76.4522 39.4989 76.4939 39.3794 76.5773 39.2849C76.6662 39.1904 76.7996 39.1432 76.9775 39.1432C77.1554 39.1432 77.286 39.1904 77.3694 39.2849C77.4583 39.3794 77.5028 39.4989 77.5028 39.6434C77.5028 39.788 77.4583 39.9075 77.3694 40.002C77.286 40.0965 77.1554 40.1437 76.9775 40.1437ZM80.9933 45.4635C80.6042 45.4635 80.2679 45.3968 79.9844 45.2634C79.7009 45.13 79.4702 44.9549 79.2923 44.7381C79.1144 44.5157 78.981 44.2684 78.8921 43.996C78.8087 43.7236 78.767 43.4457 78.767 43.1622V43.0121C78.767 42.723 78.8087 42.4423 78.8921 42.1699C78.981 41.8975 79.1144 41.6529 79.2923 41.4362C79.4702 41.2138 79.6953 41.0387 79.9677 40.9109C80.2457 40.7774 80.5709 40.7107 80.9433 40.7107C81.4269 40.7107 81.8244 40.8164 82.1357 41.0276C82.4525 41.2333 82.686 41.5001 82.8361 41.8281C82.9917 42.156 83.0695 42.5062 83.0695 42.8787V43.2372H79.1172V42.6369H82.4859L82.3024 42.962C82.3024 42.6452 82.2524 42.3728 82.1523 42.1449C82.0523 41.9114 81.9022 41.7308 81.7021 41.6029C81.5019 41.4751 81.249 41.4111 80.9433 41.4111C80.6264 41.4111 80.3624 41.4834 80.1512 41.6279C79.9455 41.7725 79.7898 41.9698 79.6842 42.2199C79.5842 42.4701 79.5341 42.7591 79.5341 43.0871C79.5341 43.404 79.5842 43.6902 79.6842 43.946C79.7898 44.1961 79.951 44.3962 80.1678 44.5463C80.3846 44.6908 80.6598 44.7631 80.9933 44.7631C81.3435 44.7631 81.627 44.6853 81.8438 44.5296C82.0662 44.374 82.1996 44.1933 82.244 43.9876H82.9945C82.9333 44.2934 82.811 44.5574 82.6276 44.7798C82.4442 45.0021 82.2135 45.1717 81.9355 45.2884C81.6576 45.4051 81.3435 45.4635 80.9933 45.4635ZM84.2061 45.3134V40.8608H84.8398V42.7703H84.7397C84.7397 42.3311 84.7981 41.9615 84.9148 41.6613C85.0371 41.3556 85.2205 41.1249 85.4651 40.9692C85.7097 40.808 86.0182 40.7274 86.3907 40.7274H86.424C86.9855 40.7274 87.3996 40.9025 87.6664 41.2527C87.9388 41.6029 88.075 42.1088 88.075 42.7703V45.3134H87.2745V42.6035C87.2745 42.2589 87.1772 41.9837 86.9827 41.778C86.7881 41.5668 86.5213 41.4612 86.1822 41.4612C85.832 41.4612 85.5485 41.5696 85.3317 41.7864C85.1149 42.0032 85.0065 42.2922 85.0065 42.6535V45.3134H84.2061ZM91.449 45.4635C91.0655 45.4635 90.7319 45.3968 90.4484 45.2634C90.1705 45.13 89.9398 44.9521 89.7564 44.7297C89.5729 44.5018 89.434 44.2517 89.3395 43.9793C89.2505 43.7069 89.206 43.4345 89.206 43.1622V43.0121C89.206 42.7286 89.2505 42.4506 89.3395 42.1783C89.434 41.9059 89.5729 41.6613 89.7564 41.4445C89.9454 41.2221 90.1788 41.0443 90.4568 40.9109C90.7347 40.7774 91.0599 40.7107 91.4323 40.7107C91.8048 40.7107 92.1383 40.7802 92.4329 40.9192C92.7331 41.0582 92.9721 41.2555 93.15 41.5112C93.3335 41.7613 93.4363 42.0587 93.4585 42.4034H92.6914C92.6525 42.1254 92.5246 41.8948 92.3079 41.7113C92.0911 41.5223 91.7992 41.4278 91.4323 41.4278C91.1155 41.4278 90.8515 41.5001 90.6402 41.6446C90.429 41.7891 90.2706 41.9865 90.1649 42.2366C90.0593 42.4868 90.0065 42.7703 90.0065 43.0871C90.0065 43.3929 90.0593 43.6736 90.1649 43.9293C90.2706 44.1794 90.429 44.3795 90.6402 44.5296C90.857 44.6742 91.1266 44.7464 91.449 44.7464C91.6992 44.7464 91.916 44.7019 92.0994 44.613C92.2828 44.5241 92.4301 44.4046 92.5413 44.2545C92.6525 44.1044 92.7192 43.9348 92.7414 43.7458H93.5086C93.4919 44.096 93.389 44.399 93.2 44.6547C93.0166 44.9104 92.772 45.1105 92.4663 45.255C92.1661 45.394 91.827 45.4635 91.449 45.4635ZM96.489 45.4635C96.0999 45.4635 95.7636 45.3968 95.4801 45.2634C95.1966 45.13 94.9659 44.9549 94.788 44.7381C94.6101 44.5157 94.4767 44.2684 94.3878 43.996C94.3044 43.7236 94.2627 43.4457 94.2627 43.1622V43.0121C94.2627 42.723 94.3044 42.4423 94.3878 42.1699C94.4767 41.8975 94.6101 41.6529 94.788 41.4362C94.9659 41.2138 95.191 41.0387 95.4634 40.9109C95.7413 40.7774 96.0665 40.7107 96.439 40.7107C96.9226 40.7107 97.32 40.8164 97.6313 41.0276C97.9482 41.2333 98.1817 41.5001 98.3317 41.8281C98.4874 42.156 98.5652 42.5062 98.5652 42.8787V43.2372H94.6129V42.6369H97.9815L97.7981 42.962C97.7981 42.6452 97.7481 42.3728 97.648 42.1449C97.548 41.9114 97.3979 41.7308 97.1977 41.6029C96.9976 41.4751 96.7447 41.4111 96.439 41.4111C96.1221 41.4111 95.8581 41.4834 95.6468 41.6279C95.4412 41.7725 95.2855 41.9698 95.1799 42.2199C95.0798 42.4701 95.0298 42.7591 95.0298 43.0871C95.0298 43.404 95.0798 43.6902 95.1799 43.946C95.2855 44.1961 95.4467 44.3962 95.6635 44.5463C95.8803 44.6908 96.1555 44.7631 96.489 44.7631C96.8392 44.7631 97.1227 44.6853 97.3395 44.5296C97.5618 44.374 97.6953 44.1933 97.7397 43.9876H98.4902C98.429 44.2934 98.3067 44.5574 98.1233 44.7798C97.9398 45.0021 97.7092 45.1717 97.4312 45.2884C97.1533 45.4051 96.8392 45.4635 96.489 45.4635ZM103.692 45.4635C103.186 45.4635 102.755 45.3801 102.399 45.2134C102.044 45.0466 101.771 44.8159 101.582 44.5213C101.393 44.2267 101.299 43.8931 101.299 43.5207H102.116C102.116 43.7041 102.163 43.8876 102.258 44.071C102.358 44.2545 102.522 44.4073 102.75 44.5296C102.983 44.6519 103.297 44.7131 103.692 44.7131C104.059 44.7131 104.359 44.6603 104.592 44.5546C104.826 44.4435 104.998 44.3017 105.109 44.1294C105.221 43.9515 105.276 43.7597 105.276 43.5541C105.276 43.3039 105.168 43.0982 104.951 42.937C104.734 42.7703 104.417 42.6674 104 42.6285L103.325 42.5702C102.786 42.5257 102.355 42.3589 102.033 42.0699C101.71 41.7808 101.549 41.4 101.549 40.9275C101.549 40.5551 101.638 40.2299 101.816 39.952C101.999 39.674 102.252 39.4572 102.575 39.3016C102.897 39.1404 103.272 39.0598 103.7 39.0598C104.123 39.0598 104.495 39.1376 104.818 39.2932C105.14 39.4489 105.39 39.6685 105.568 39.952C105.751 40.2299 105.843 40.5634 105.843 40.9525H105.026C105.026 40.758 104.979 40.5745 104.884 40.4022C104.795 40.2299 104.654 40.0881 104.459 39.977C104.264 39.8658 104.012 39.8102 103.7 39.8102C103.4 39.8102 103.15 39.863 102.95 39.9686C102.755 40.0743 102.608 40.2132 102.508 40.3855C102.413 40.5523 102.366 40.733 102.366 40.9275C102.366 41.1499 102.452 41.3472 102.625 41.5195C102.797 41.6919 103.053 41.7919 103.392 41.8197L104.067 41.8781C104.484 41.9114 104.843 42.0004 105.143 42.1449C105.448 42.2839 105.682 42.4729 105.843 42.7119C106.01 42.9454 106.093 43.2261 106.093 43.5541C106.093 43.9265 105.993 44.2572 105.793 44.5463C105.593 44.8354 105.312 45.0605 104.951 45.2217C104.59 45.3829 104.17 45.4635 103.692 45.4635ZM109.082 45.3634C108.749 45.3634 108.46 45.3162 108.215 45.2217C107.976 45.1272 107.79 44.966 107.656 44.7381C107.528 44.5046 107.465 44.1905 107.465 43.7959V39.51H108.232V43.8959C108.232 44.135 108.296 44.3212 108.423 44.4546C108.557 44.5824 108.743 44.6464 108.982 44.6464H109.766V45.3634H109.082ZM106.697 41.4612V40.8608H109.766V41.4612H106.697ZM112.441 45.4468C111.913 45.4468 111.507 45.2745 111.223 44.9299C110.94 44.5852 110.798 44.0877 110.798 43.4373V40.8525H111.598V43.5957C111.598 43.946 111.693 44.2211 111.882 44.4212C112.071 44.6158 112.327 44.7131 112.649 44.7131C112.983 44.7131 113.255 44.6074 113.466 44.3962C113.677 44.1794 113.783 43.8848 113.783 43.5124V40.8525H114.584V45.3134H113.95V43.404H114.05C114.05 43.8431 113.992 44.2156 113.875 44.5213C113.758 44.8215 113.583 45.0522 113.349 45.2134C113.122 45.369 112.83 45.4468 112.474 45.4468H112.441ZM117.993 45.4635C117.676 45.4635 117.385 45.4051 117.118 45.2884C116.851 45.1717 116.617 45.0077 116.417 44.7964C116.223 44.5852 116.07 44.3406 115.959 44.0627C115.853 43.7847 115.8 43.4846 115.8 43.1622V43.0121C115.8 42.6952 115.853 42.3978 115.959 42.1199C116.064 41.8419 116.212 41.5974 116.401 41.3861C116.595 41.1749 116.823 41.0109 117.084 40.8942C117.351 40.7719 117.646 40.7107 117.968 40.7107C118.307 40.7107 118.616 40.783 118.894 40.9275C119.172 41.0665 119.4 41.2861 119.578 41.5862C119.755 41.8864 119.855 42.2755 119.878 42.7536L119.544 42.2199V39.2265H120.345V45.3134H119.711V43.3373H119.944C119.922 43.8431 119.817 44.2545 119.628 44.5713C119.439 44.8826 119.2 45.1105 118.91 45.255C118.627 45.394 118.321 45.4635 117.993 45.4635ZM118.102 44.7631C118.374 44.7631 118.621 44.7019 118.844 44.5797C119.066 44.4574 119.244 44.2823 119.377 44.0543C119.511 43.8209 119.578 43.5485 119.578 43.2372V42.8536C119.578 42.5479 119.508 42.2894 119.369 42.0782C119.236 41.8614 119.055 41.6974 118.827 41.5862C118.605 41.4695 118.36 41.4111 118.093 41.4111C117.799 41.4111 117.537 41.4806 117.31 41.6196C117.087 41.7586 116.912 41.9531 116.784 42.2033C116.662 42.4534 116.601 42.748 116.601 43.0871C116.601 43.4262 116.665 43.7236 116.793 43.9793C116.92 44.2295 117.098 44.424 117.326 44.563C117.554 44.6964 117.813 44.7631 118.102 44.7631ZM123.775 45.4635C123.386 45.4635 123.05 45.3968 122.766 45.2634C122.483 45.13 122.252 44.9549 122.074 44.7381C121.897 44.5157 121.763 44.2684 121.674 43.996C121.591 43.7236 121.549 43.4457 121.549 43.1622V43.0121C121.549 42.723 121.591 42.4423 121.674 42.1699C121.763 41.8975 121.897 41.6529 122.074 41.4362C122.252 41.2138 122.477 41.0387 122.75 40.9109C123.028 40.7774 123.353 40.7107 123.725 40.7107C124.209 40.7107 124.606 40.8164 124.918 41.0276C125.235 41.2333 125.468 41.5001 125.618 41.8281C125.774 42.156 125.852 42.5062 125.852 42.8787V43.2372H121.899V42.6369H125.268L125.085 42.962C125.085 42.6452 125.034 42.3728 124.934 42.1449C124.834 41.9114 124.684 41.7308 124.484 41.6029C124.284 41.4751 124.031 41.4111 123.725 41.4111C123.409 41.4111 123.144 41.4834 122.933 41.6279C122.728 41.7725 122.572 41.9698 122.466 42.2199C122.366 42.4701 122.316 42.7591 122.316 43.0871C122.316 43.404 122.366 43.6902 122.466 43.946C122.572 44.1961 122.733 44.3962 122.95 44.5463C123.167 44.6908 123.442 44.7631 123.775 44.7631C124.126 44.7631 124.409 44.6853 124.626 44.5296C124.848 44.374 124.982 44.1933 125.026 43.9876H125.777C125.715 44.2934 125.593 44.5574 125.41 44.7798C125.226 45.0021 124.996 45.1717 124.718 45.2884C124.44 45.4051 124.126 45.4635 123.775 45.4635ZM126.988 45.3134V40.8608H127.622V42.7703H127.522C127.522 42.3311 127.58 41.9615 127.697 41.6613C127.819 41.3556 128.003 41.1249 128.247 40.9692C128.492 40.808 128.8 40.7274 129.173 40.7274H129.206C129.768 40.7274 130.182 40.9025 130.449 41.2527C130.721 41.6029 130.857 42.1088 130.857 42.7703V45.3134H130.057V42.6035C130.057 42.2589 129.959 41.9837 129.765 41.778C129.57 41.5668 129.303 41.4612 128.964 41.4612C128.614 41.4612 128.331 41.5696 128.114 41.7864C127.897 42.0032 127.789 42.2922 127.789 42.6535V45.3134H126.988ZM134.056 45.3634C133.722 45.3634 133.433 45.3162 133.189 45.2217C132.95 45.1272 132.764 44.966 132.63 44.7381C132.502 44.5046 132.438 44.1905 132.438 43.7959V39.51H133.206V43.8959C133.206 44.135 133.269 44.3212 133.397 44.4546C133.531 44.5824 133.717 44.6464 133.956 44.6464H134.74V45.3634H134.056ZM131.671 41.4612V40.8608H134.74V41.4612H131.671ZM137.299 45.4468C136.715 45.4468 136.262 45.3218 135.939 45.0716C135.623 44.8215 135.459 44.4796 135.447 44.046H136.198C136.209 44.2183 136.295 44.3823 136.456 44.538C136.623 44.6881 136.904 44.7631 137.299 44.7631C137.654 44.7631 137.927 44.6936 138.116 44.5546C138.305 44.4101 138.399 44.235 138.399 44.0293C138.399 43.8459 138.33 43.7041 138.191 43.6041C138.052 43.4985 137.827 43.429 137.515 43.3956L137.032 43.3456C136.609 43.3011 136.265 43.1761 135.998 42.9704C135.731 42.7591 135.598 42.4645 135.598 42.0865C135.598 41.803 135.67 41.5612 135.814 41.3611C135.959 41.1554 136.159 40.9998 136.415 40.8942C136.67 40.783 136.965 40.7274 137.299 40.7274C137.799 40.7274 138.205 40.8386 138.516 41.0609C138.827 41.2833 138.988 41.614 139 42.0532H138.249C138.244 41.8753 138.16 41.7252 137.999 41.6029C137.843 41.4751 137.61 41.4111 137.299 41.4111C136.987 41.4111 136.751 41.4751 136.59 41.6029C136.429 41.7308 136.348 41.892 136.348 42.0865C136.348 42.2533 136.404 42.3867 136.515 42.4868C136.631 42.5868 136.82 42.6508 137.082 42.6785L137.565 42.7286C138.043 42.7786 138.427 42.912 138.716 43.1288C139.005 43.34 139.15 43.6402 139.15 44.0293C139.15 44.3073 139.069 44.5546 138.908 44.7714C138.752 44.9827 138.535 45.1494 138.257 45.2717C137.979 45.3885 137.66 45.4468 137.299 45.4468Z" fill="white"></path></svg>