<svg xmlns="http://www.w3.org/2000/svg" width="686" height="246" viewBox="0 0 686 246" fill="none"><path d="M184.3 130.06C179.788 130.147 175.305 129.334 171.11 127.67C167.481 126.202 164.19 124.007 161.44 121.22C158.835 118.578 156.794 115.435 155.44 111.98C154.096 108.498 153.417 104.793 153.44 101.06V98.8803C153.42 95.0946 154.126 91.3402 155.52 87.8203C156.929 84.2332 159.064 80.976 161.791 78.2536C164.519 75.5311 167.78 73.4021 171.37 72.0003C179.694 68.8801 188.866 68.8801 197.19 72.0003C200.837 73.4526 204.143 75.6454 206.9 78.4403C209.544 81.1248 211.618 84.3151 213 87.8203C214.394 91.3402 215.1 95.0946 215.08 98.8803V101.06C215.08 104.805 214.374 108.517 213 112C211.646 115.455 209.605 118.598 207 121.24C204.252 124.025 200.965 126.219 197.34 127.69C193.192 129.333 188.76 130.138 184.3 130.06ZM184.3 117.69C187.408 117.785 190.477 116.972 193.13 115.35C195.547 113.803 197.476 111.601 198.69 109C199.971 106.131 200.628 103.022 200.62 99.88C200.611 96.7377 199.936 93.6328 198.64 90.7703C197.399 88.1546 195.444 85.943 193 84.3903C190.381 82.7753 187.346 81.9619 184.27 82.0504C181.179 81.9689 178.13 82.7814 175.49 84.3903C173.034 85.939 171.071 88.1556 169.83 90.7803C168.54 93.6436 167.871 96.7477 167.868 99.8882C167.864 103.029 168.526 106.134 169.81 109C171.026 111.597 172.954 113.796 175.37 115.34C178.055 116.976 181.158 117.792 184.3 117.69Z" fill="white"></path><path d="M220.46 82.2598V71.6598H260.37V82.2598H220.46ZM252.26 128.81C247.859 128.961 243.47 128.283 239.32 126.81C236.052 125.546 233.381 123.096 231.84 119.95C230.213 116.73 229.4 112.396 229.4 106.95V55.7598H243L242.9 107.82C242.768 108.984 242.9 110.163 243.286 111.269C243.672 112.375 244.303 113.38 245.132 114.208C245.96 115.036 246.965 115.667 248.071 116.054C249.177 116.44 250.356 116.572 251.52 116.44H260.36V128.81H252.26Z" fill="white"></path><path d="M267.33 82.46V71.66H289.67V82.46H267.33ZM280.52 64.9C277.68 64.9 275.59 64.18 274.24 62.72C272.857 61.1486 272.14 59.1008 272.24 57.01C272.157 54.9489 272.874 52.9354 274.24 51.39C275.573 49.9433 277.667 49.2167 280.52 49.21C283.373 49.2033 285.453 49.93 286.76 51.39C288.118 52.9402 288.834 54.9503 288.76 57.01C288.845 59.0985 288.129 61.1407 286.76 62.72C285.44 64.18 283.36 64.9 280.52 64.9ZM275.22 128.08V71.66H289.67V128.08H275.22Z" fill="white"></path><path d="M331.23 130.06C326.88 130.158 322.56 129.322 318.56 127.61C315.11 126.108 312.051 123.833 309.62 120.96C307.281 118.186 305.483 114.998 304.32 111.56C303.153 108.162 302.555 104.594 302.55 101V99.0003C302.535 95.2575 303.15 91.5389 304.37 88.0003C305.548 84.5614 307.386 81.3854 309.78 78.6503C312.254 75.8529 315.299 73.6192 318.71 72.1003C322.801 70.4211 327.191 69.5923 331.613 69.6645C336.035 69.7367 340.396 70.7084 344.43 72.5203C348.178 74.3258 351.385 77.0846 353.73 80.5203C356.091 84.0384 357.44 88.1376 357.63 92.3703H343.49C343.187 89.6028 341.898 87.0366 339.86 85.1403C337.78 83.1403 334.87 82.1403 331.13 82.1403C328.336 82.0472 325.586 82.8496 323.28 84.4303C321.12 86.0143 319.477 88.2032 318.56 90.7203C317.471 93.6628 316.941 96.7832 317 99.9203C316.963 102.986 317.471 106.033 318.5 108.92C319.369 111.564 321.089 113.846 323.393 115.407C325.696 116.969 328.453 117.723 331.23 117.55C333.489 117.615 335.731 117.153 337.78 116.2C339.522 115.352 341.009 114.058 342.09 112.45C343.177 110.842 343.837 108.984 344.01 107.05H358.15C357.964 111.346 356.579 115.503 354.15 119.05C351.736 122.5 348.479 125.275 344.69 127.11C340.493 129.125 335.885 130.135 331.23 130.06Z" fill="white"></path><path d="M394.93 130.06C390.556 130.152 386.214 129.3 382.2 127.56C378.742 126.02 375.668 123.731 373.2 120.86C370.832 118.089 369.001 114.902 367.8 111.46C366.595 108.056 365.979 104.471 365.98 100.86V98.8601C365.957 95.1656 366.559 91.4938 367.76 88.0001C368.932 84.5715 370.748 81.398 373.11 78.6501C375.562 75.8511 378.596 73.6224 382 72.1201C385.884 70.4322 390.086 69.6 394.32 69.6801C400.407 69.6801 405.513 71.0134 409.64 73.6801C413.662 76.2399 416.885 79.8781 418.94 84.1801C421.031 88.5488 422.098 93.3369 422.06 98.1801V103.48H372.06V94.5201H412.9L408.53 98.8801C408.608 95.7208 408.061 92.5773 406.92 89.6301C405.973 87.2268 404.325 85.164 402.19 83.7101C399.825 82.2487 397.078 81.5246 394.3 81.6301C391.433 81.541 388.605 82.3219 386.19 83.8701C383.938 85.4217 382.198 87.6075 381.19 90.1501C379.975 93.2604 379.394 96.5821 379.48 99.9201C379.421 103.134 379.985 106.33 381.14 109.33C382.155 111.937 383.928 114.18 386.23 115.77C388.835 117.418 391.88 118.235 394.96 118.11C397.934 118.234 400.88 117.501 403.45 116C405.468 114.834 406.984 112.965 407.71 110.75H421.12C420.356 114.476 418.713 117.966 416.33 120.93C413.921 123.879 410.833 126.198 407.33 127.69C403.405 129.329 399.183 130.136 394.93 130.06Z" fill="white"></path><path d="M435.25 128.6V51.71H449.69V128.6H435.25ZM447.61 93.17V84.17H463.82C467.36 84.17 469.95 83.23 471.62 81.36C473.348 79.3001 474.237 76.6654 474.11 73.98C474.258 71.2307 473.369 68.526 471.62 66.4C469.95 64.53 467.36 63.59 463.82 63.59H447.61V51.71H462.47C471.057 51.71 477.587 53.51 482.06 57.11C486.533 60.71 488.767 65.87 488.76 72.59V74.15C488.76 78.8633 487.633 82.6233 485.38 85.43C482.976 88.3444 479.726 90.4408 476.08 91.43C471.653 92.6752 467.068 93.2714 462.47 93.2L447.61 93.17ZM447.61 128.6V116.76H466.61C470 116.76 472.61 115.76 474.45 113.9C475.405 112.838 476.14 111.598 476.614 110.251C477.088 108.903 477.29 107.476 477.21 106.05C477.21 102.717 476.31 100.137 474.51 98.31C472.71 96.4833 470.077 95.5666 466.61 95.56H447.61V86.56H465.61C470.195 86.4919 474.765 87.1053 479.17 88.38C482.841 89.3848 486.108 91.506 488.52 94.45C490.77 97.3 491.9 101.1 491.9 105.88V107.3C492.011 111.334 490.97 115.316 488.9 118.78C486.772 122.058 483.685 124.6 480.06 126.06C475.452 127.88 470.522 128.744 465.57 128.6H447.61Z" fill="white"></path><path d="M521.49 129.54C517.804 129.624 514.146 128.875 510.79 127.35C507.864 126.005 505.391 123.841 503.67 121.12C501.909 118.172 501.027 114.782 501.13 111.35C500.966 107.717 502.022 104.133 504.13 101.17C506.354 98.3871 509.354 96.3268 512.75 95.25C516.972 93.8478 521.402 93.1715 525.85 93.25H538.85V102H525.65C522.32 102 519.78 102.8 518.01 104.39C517.172 105.198 516.505 106.166 516.05 107.238C515.595 108.309 515.36 109.461 515.36 110.625C515.36 111.789 515.595 112.941 516.05 114.012C516.505 115.084 517.172 116.052 518.01 116.86C519.78 118.45 522.32 119.25 525.65 119.25C527.558 119.271 529.451 118.9 531.21 118.16C532.966 117.378 534.436 116.071 535.42 114.42C536.643 112.206 537.286 109.719 537.29 107.19L540.82 111.25C540.609 114.752 539.633 118.166 537.96 121.25C536.465 123.899 534.226 126.051 531.52 127.44C528.392 128.93 524.953 129.65 521.49 129.54ZM539.68 128.08V111.35H537.29V92.75C537.29 89.57 536.493 87.1633 534.9 85.53C533.3 83.9 530.9 83.09 527.62 83.09C525.887 83.09 523.81 83.1233 521.39 83.19C518.97 83.2567 516.527 83.3433 514.06 83.45C511.6 83.5633 509.4 83.6833 507.46 83.81V71.55C509.06 71.42 510.84 71.28 512.82 71.14C514.8 71 516.82 70.91 519 70.88C521.18 70.85 523.16 70.83 525 70.83C529.93 70.6836 534.843 71.4568 539.49 73.11C543.131 74.4632 546.208 77.0076 548.22 80.33C550.22 83.63 551.22 87.9 551.22 93.17V128.08H539.68Z" fill="white"></path><path d="M566.69 128.08V71.6597H578.12V95.5597H577.81C577.81 87.5197 579.544 81.4064 583.01 77.2197C586.477 73.033 591.567 70.9364 598.28 70.9297H600.36V83.4997H596.36C591.514 83.4997 587.757 84.833 585.09 87.4997C582.424 90.1664 581.09 93.943 581.09 98.8297V128.13L566.69 128.08Z" fill="white"></path><path d="M633 130C629.22 130.055 625.472 129.312 622 127.82C618.755 126.399 615.836 124.33 613.42 121.74C610.958 119.076 609.051 115.949 607.81 112.54C606.465 108.881 605.787 105.009 605.81 101.11V98.8805C605.781 95.028 606.414 91.1991 607.68 87.5605C608.853 84.1519 610.689 81.0085 613.08 78.3105C615.429 75.6878 618.295 73.5801 621.5 72.1205C624.932 70.5979 628.654 69.8372 632.409 69.8905C636.505 69.8051 640.552 70.791 644.15 72.7505C647.609 74.7487 650.394 77.7323 652.15 81.3205C654.15 85.1271 655.243 89.9071 655.43 95.6605L651.17 90.7805V52.2305H665.719V128.08H654.289V104.18H656.78C656.757 109.157 655.547 114.056 653.25 118.47C651.314 122.099 648.373 125.091 644.78 127.09C641.164 129.045 637.11 130.047 633 130ZM636.219 117.84C638.939 117.867 641.62 117.188 644 115.87C646.353 114.557 648.296 112.614 649.61 110.26C651.079 107.608 651.814 104.612 651.74 101.58V97.4305C651.832 94.5048 651.075 91.615 649.56 89.1105C648.163 86.881 646.19 85.0704 643.849 83.8705C641.503 82.6618 638.899 82.0375 636.26 82.0505C633.343 81.994 630.474 82.7861 628 84.3305C625.594 85.8797 623.655 88.054 622.39 90.6205C620.99 93.5519 620.305 96.7732 620.39 100.02C620.309 103.279 621.023 106.509 622.469 109.43C623.736 111.997 625.709 114.148 628.158 115.629C630.607 117.111 633.428 117.861 636.289 117.79L636.219 117.84Z" fill="white"></path><path fill-rule="evenodd" clip-rule="evenodd" d="M97.06 33.21H128.53C131.662 33.2073 134.668 34.447 136.887 36.6572C139.107 38.8674 140.359 41.8677 140.37 45V141.7C140.37 143.254 140.064 144.794 139.469 146.229C138.873 147.665 138.001 148.97 136.902 150.069C135.802 151.167 134.497 152.038 133.06 152.632C131.624 153.226 130.084 153.531 128.53 153.53H31.84C30.2856 153.531 28.7462 153.226 27.3098 152.632C25.8733 152.038 24.568 151.167 23.4685 150.069C22.3689 148.97 21.4966 147.665 20.9015 146.229C20.3063 144.794 20 143.254 20 141.7V45C20.0106 41.8677 21.263 38.8674 23.4826 36.6572C25.7021 34.447 28.7077 33.2073 31.84 33.21H63.31C63.31 24.81 71.78 18 80.18 18C88.58 18 97.06 24.81 97.06 33.21ZM75.7354 39.8618C77.051 40.7408 78.5977 41.21 80.18 41.21V41.19C82.2983 41.19 84.3301 40.3499 85.8298 38.8539C87.3295 37.358 88.1747 35.3283 88.18 33.21C88.18 31.6277 87.7108 30.081 86.8318 28.7654C85.9527 27.4498 84.7033 26.4245 83.2415 25.819C81.7797 25.2135 80.1711 25.055 78.6193 25.3637C77.0674 25.6724 75.642 26.4343 74.5231 27.5531C73.4043 28.672 72.6424 30.0974 72.3337 31.6493C72.025 33.2011 72.1835 34.8097 72.789 36.2715C73.3945 37.7333 74.4198 38.9827 75.7354 39.8618ZM44.2305 57.4902V133.89L58.0505 133.94V69.8902H59.5405L91.5405 133.89H116.08V57.4902H102.08V121.54H100.62L68.6205 57.4902H44.2305Z" fill="white"></path><path d="M24.24 218V188.8H28.16V218H24.24ZM27.36 205V201.48L39.88 201.44V204.96L27.36 205ZM27.36 192.32V188.8H40.56V192.32H27.36ZM55.5122 218.72C53.6455 218.72 52.0055 218.4 50.5922 217.76C49.1789 217.12 47.9789 216.28 46.9922 215.24C46.0322 214.173 45.2989 212.987 44.7922 211.68C44.3122 210.373 44.0722 209.04 44.0722 207.68V206.96C44.0722 205.6 44.3255 204.267 44.8322 202.96C45.3389 201.627 46.0855 200.44 47.0722 199.4C48.0589 198.333 49.2589 197.493 50.6722 196.88C52.0855 196.24 53.6989 195.92 55.5122 195.92C57.3255 195.92 58.9389 196.24 60.3522 196.88C61.7655 197.493 62.9655 198.333 63.9522 199.4C64.9389 200.44 65.6855 201.627 66.1922 202.96C66.6989 204.267 66.9522 205.6 66.9522 206.96V207.68C66.9522 209.04 66.6989 210.373 66.1922 211.68C65.7122 212.987 64.9789 214.173 63.9922 215.24C63.0322 216.28 61.8455 217.12 60.4322 217.76C59.0189 218.4 57.3789 218.72 55.5122 218.72ZM55.5122 215.28C57.1122 215.28 58.4722 214.933 59.5922 214.24C60.7389 213.52 61.6055 212.56 62.1922 211.36C62.8055 210.16 63.1122 208.813 63.1122 207.32C63.1122 205.8 62.8055 204.44 62.1922 203.24C61.5789 202.04 60.6989 201.093 59.5522 200.4C58.4322 199.707 57.0855 199.36 55.5122 199.36C53.9655 199.36 52.6189 199.707 51.4722 200.4C50.3255 201.093 49.4455 202.04 48.8322 203.24C48.2189 204.44 47.9122 205.8 47.9122 207.32C47.9122 208.813 48.2055 210.16 48.7922 211.36C49.4055 212.56 50.2722 213.52 51.3922 214.24C52.5389 214.933 53.9122 215.28 55.5122 215.28ZM72.7034 218V196.64H75.7434V205.44H75.5834C75.5834 202.32 76.2634 200.04 77.6234 198.6C79.0101 197.133 81.0768 196.4 83.8234 196.4H84.5434V199.84H83.1834C81.0501 199.84 79.4101 200.413 78.2634 201.56C77.1168 202.68 76.5434 204.307 76.5434 206.44V218H72.7034ZM111.451 218.72C108.785 218.72 106.505 218.253 104.611 217.32C102.745 216.387 101.238 215.173 100.091 213.68C98.9446 212.187 98.1046 210.573 97.5713 208.84C97.0379 207.08 96.7713 205.387 96.7713 203.76V202.88C96.7713 201.12 97.0379 199.36 97.5713 197.6C98.1313 195.84 98.9846 194.24 100.131 192.8C101.278 191.36 102.771 190.2 104.611 189.32C106.451 188.44 108.651 188 111.211 188C113.825 188 116.065 188.453 117.931 189.36C119.798 190.267 121.278 191.533 122.371 193.16C123.465 194.787 124.131 196.707 124.371 198.92H120.371C120.158 197.267 119.625 195.907 118.771 194.84C117.918 193.747 116.838 192.933 115.531 192.4C114.251 191.867 112.811 191.6 111.211 191.6C109.478 191.6 107.958 191.907 106.651 192.52C105.345 193.107 104.251 193.947 103.371 195.04C102.518 196.107 101.865 197.347 101.411 198.76C100.985 200.173 100.771 201.707 100.771 203.36C100.771 204.933 100.985 206.427 101.411 207.84C101.865 209.253 102.531 210.507 103.411 211.6C104.318 212.693 105.438 213.56 106.771 214.2C108.105 214.813 109.665 215.12 111.451 215.12C113.958 215.12 116.065 214.493 117.771 213.24C119.478 211.987 120.518 210.173 120.891 207.8H124.891C124.625 209.8 123.945 211.627 122.851 213.28C121.785 214.933 120.291 216.253 118.371 217.24C116.478 218.227 114.171 218.72 111.451 218.72ZM139.848 218.72C137.981 218.72 136.341 218.4 134.928 217.76C133.515 217.12 132.315 216.28 131.328 215.24C130.368 214.173 129.635 212.987 129.128 211.68C128.648 210.373 128.408 209.04 128.408 207.68V206.96C128.408 205.6 128.661 204.267 129.168 202.96C129.675 201.627 130.421 200.44 131.408 199.4C132.395 198.333 133.595 197.493 135.008 196.88C136.421 196.24 138.035 195.92 139.848 195.92C141.661 195.92 143.275 196.24 144.688 196.88C146.101 197.493 147.301 198.333 148.288 199.4C149.275 200.44 150.021 201.627 150.528 202.96C151.035 204.267 151.288 205.6 151.288 206.96V207.68C151.288 209.04 151.035 210.373 150.528 211.68C150.048 212.987 149.315 214.173 148.328 215.24C147.368 216.28 146.181 217.12 144.768 217.76C143.355 218.4 141.715 218.72 139.848 218.72ZM139.848 215.28C141.448 215.28 142.808 214.933 143.928 214.24C145.075 213.52 145.941 212.56 146.528 211.36C147.141 210.16 147.448 208.813 147.448 207.32C147.448 205.8 147.141 204.44 146.528 203.24C145.915 202.04 145.035 201.093 143.888 200.4C142.768 199.707 141.421 199.36 139.848 199.36C138.301 199.36 136.955 199.707 135.808 200.4C134.661 201.093 133.781 202.04 133.168 203.24C132.555 204.44 132.248 205.8 132.248 207.32C132.248 208.813 132.541 210.16 133.128 211.36C133.741 212.56 134.608 213.52 135.728 214.24C136.875 214.933 138.248 215.28 139.848 215.28ZM157.039 218V196.64H160.079V205.8H159.599C159.599 203.72 159.866 201.96 160.399 200.52C160.959 199.053 161.786 197.933 162.879 197.16C163.973 196.387 165.359 196 167.039 196H167.199C168.879 196 170.266 196.387 171.359 197.16C172.479 197.933 173.306 199.053 173.839 200.52C174.373 201.96 174.639 203.72 174.639 205.8H173.519C173.519 203.72 173.799 201.96 174.359 200.52C174.919 199.053 175.746 197.933 176.839 197.16C177.959 196.387 179.359 196 181.039 196H181.199C182.879 196 184.279 196.387 185.399 197.16C186.519 197.933 187.346 199.053 187.879 200.52C188.439 201.96 188.719 203.72 188.719 205.8V218H184.879V204.96C184.879 203.227 184.453 201.893 183.599 200.96C182.746 200 181.559 199.52 180.039 199.52C178.466 199.52 177.199 200.027 176.239 201.04C175.279 202.027 174.799 203.413 174.799 205.2V218H170.959V204.96C170.959 203.227 170.533 201.893 169.679 200.96C168.826 200 167.639 199.52 166.119 199.52C164.546 199.52 163.279 200.027 162.319 201.04C161.359 202.027 160.879 203.413 160.879 205.2V218H157.039ZM195.75 226V196.64H198.79V205.88L198.07 205.8C198.204 203.507 198.684 201.64 199.51 200.2C200.364 198.733 201.47 197.653 202.83 196.96C204.19 196.267 205.67 195.92 207.27 195.92C208.817 195.92 210.217 196.213 211.47 196.8C212.75 197.387 213.844 198.187 214.75 199.2C215.657 200.213 216.35 201.387 216.83 202.72C217.31 204.053 217.55 205.467 217.55 206.96V207.68C217.55 209.173 217.297 210.587 216.79 211.92C216.284 213.253 215.564 214.427 214.63 215.44C213.724 216.453 212.63 217.253 211.35 217.84C210.097 218.427 208.71 218.72 207.19 218.72C205.67 218.72 204.217 218.387 202.83 217.72C201.444 217.053 200.297 215.973 199.39 214.48C198.484 212.987 197.964 211.027 197.83 208.6L199.59 211.8V226H195.75ZM206.59 215.36C208.03 215.36 209.284 215.027 210.35 214.36C211.417 213.667 212.244 212.72 212.83 211.52C213.417 210.293 213.71 208.893 213.71 207.32C213.71 205.72 213.417 204.32 212.83 203.12C212.244 201.92 211.417 200.987 210.35 200.32C209.284 199.627 208.03 199.28 206.59 199.28C205.31 199.28 204.124 199.573 203.03 200.16C201.937 200.72 201.057 201.547 200.39 202.64C199.75 203.707 199.43 205 199.43 206.52V208.36C199.43 209.827 199.764 211.08 200.43 212.12C201.097 213.16 201.977 213.96 203.07 214.52C204.164 215.08 205.337 215.36 206.59 215.36ZM230.728 218.64C228.195 218.64 226.248 217.813 224.888 216.16C223.528 214.507 222.848 212.12 222.848 209V196.6H226.688V209.76C226.688 211.44 227.142 212.76 228.048 213.72C228.955 214.653 230.182 215.12 231.728 215.12C233.328 215.12 234.635 214.613 235.648 213.6C236.662 212.56 237.168 211.147 237.168 209.36V196.6H241.008V218H237.968V208.84H238.448C238.448 210.947 238.168 212.733 237.608 214.2C237.048 215.64 236.208 216.747 235.088 217.52C233.995 218.267 232.595 218.64 230.888 218.64H230.728ZM256.766 218.24C255.166 218.24 253.779 218.013 252.606 217.56C251.459 217.107 250.566 216.333 249.926 215.24C249.312 214.12 249.006 212.613 249.006 210.72V190.16H252.686V211.2C252.686 212.347 252.992 213.24 253.606 213.88C254.246 214.493 255.139 214.8 256.286 214.8H260.046V218.24H256.766ZM245.326 199.52V196.64H260.046V199.52H245.326ZM274.401 218.72C272.534 218.72 270.921 218.4 269.561 217.76C268.201 217.12 267.094 216.28 266.241 215.24C265.387 214.173 264.747 212.987 264.321 211.68C263.921 210.373 263.721 209.04 263.721 207.68V206.96C263.721 205.573 263.921 204.227 264.321 202.92C264.747 201.613 265.387 200.44 266.241 199.4C267.094 198.333 268.174 197.493 269.481 196.88C270.814 196.24 272.374 195.92 274.161 195.92C276.481 195.92 278.387 196.427 279.881 197.44C281.401 198.427 282.521 199.707 283.241 201.28C283.987 202.853 284.361 204.533 284.361 206.32V208.04H265.401V205.16H281.561L280.681 206.72C280.681 205.2 280.441 203.893 279.961 202.8C279.481 201.68 278.761 200.813 277.801 200.2C276.841 199.587 275.627 199.28 274.161 199.28C272.641 199.28 271.374 199.627 270.361 200.32C269.374 201.013 268.627 201.96 268.121 203.16C267.641 204.36 267.401 205.747 267.401 207.32C267.401 208.84 267.641 210.213 268.121 211.44C268.627 212.64 269.401 213.6 270.441 214.32C271.481 215.013 272.801 215.36 274.401 215.36C276.081 215.36 277.441 214.987 278.481 214.24C279.547 213.493 280.187 212.627 280.401 211.64H284.001C283.707 213.107 283.121 214.373 282.241 215.44C281.361 216.507 280.254 217.32 278.921 217.88C277.587 218.44 276.081 218.72 274.401 218.72ZM289.813 218V196.64H292.853V205.44H292.693C292.693 202.32 293.373 200.04 294.733 198.6C296.119 197.133 298.186 196.4 300.933 196.4H301.653V199.84H300.293C298.159 199.84 296.519 200.413 295.373 201.56C294.226 202.68 293.653 204.307 293.653 206.44V218H289.813ZM325.361 218.72C322.934 218.72 320.867 218.32 319.161 217.52C317.454 216.72 316.147 215.613 315.241 214.2C314.334 212.787 313.881 211.187 313.881 209.4H317.801C317.801 210.28 318.027 211.16 318.481 212.04C318.961 212.92 319.747 213.653 320.841 214.24C321.961 214.827 323.467 215.12 325.361 215.12C327.121 215.12 328.561 214.867 329.681 214.36C330.801 213.827 331.627 213.147 332.161 212.32C332.694 211.467 332.961 210.547 332.961 209.56C332.961 208.36 332.441 207.373 331.401 206.6C330.361 205.8 328.841 205.307 326.841 205.12L323.601 204.84C321.014 204.627 318.947 203.827 317.401 202.44C315.854 201.053 315.081 199.227 315.081 196.96C315.081 195.173 315.507 193.613 316.361 192.28C317.241 190.947 318.454 189.907 320.001 189.16C321.547 188.387 323.347 188 325.401 188C327.427 188 329.214 188.373 330.761 189.12C332.307 189.867 333.507 190.92 334.361 192.28C335.241 193.613 335.681 195.213 335.681 197.08H331.761C331.761 196.147 331.534 195.267 331.081 194.44C330.654 193.613 329.974 192.933 329.041 192.4C328.107 191.867 326.894 191.6 325.401 191.6C323.961 191.6 322.761 191.853 321.801 192.36C320.867 192.867 320.161 193.533 319.681 194.36C319.227 195.16 319.001 196.027 319.001 196.96C319.001 198.027 319.414 198.973 320.241 199.8C321.067 200.627 322.294 201.107 323.921 201.24L327.161 201.52C329.161 201.68 330.881 202.107 332.321 202.8C333.787 203.467 334.907 204.373 335.681 205.52C336.481 206.64 336.881 207.987 336.881 209.56C336.881 211.347 336.401 212.933 335.441 214.32C334.481 215.707 333.134 216.787 331.401 217.56C329.667 218.333 327.654 218.72 325.361 218.72ZM352.059 218.72C350.219 218.72 348.619 218.4 347.259 217.76C345.925 217.12 344.819 216.267 343.939 215.2C343.059 214.107 342.392 212.907 341.939 211.6C341.512 210.293 341.299 208.987 341.299 207.68V206.96C341.299 205.6 341.512 204.267 341.939 202.96C342.392 201.653 343.059 200.48 343.939 199.44C344.845 198.373 345.965 197.52 347.299 196.88C348.632 196.24 350.192 195.92 351.979 195.92C353.765 195.92 355.365 196.253 356.779 196.92C358.219 197.587 359.365 198.533 360.219 199.76C361.099 200.96 361.592 202.387 361.699 204.04H358.019C357.832 202.707 357.219 201.6 356.179 200.72C355.139 199.813 353.739 199.36 351.979 199.36C350.459 199.36 349.192 199.707 348.179 200.4C347.165 201.093 346.405 202.04 345.899 203.24C345.392 204.44 345.139 205.8 345.139 207.32C345.139 208.787 345.392 210.133 345.899 211.36C346.405 212.56 347.165 213.52 348.179 214.24C349.219 214.933 350.512 215.28 352.059 215.28C353.259 215.28 354.299 215.067 355.179 214.64C356.059 214.213 356.765 213.64 357.299 212.92C357.832 212.2 358.152 211.387 358.259 210.48H361.939C361.859 212.16 361.365 213.613 360.459 214.84C359.579 216.067 358.405 217.027 356.939 217.72C355.499 218.387 353.872 218.72 352.059 218.72ZM368.197 218V196.64H372.037V218H368.197ZM364.917 199.68V196.64H372.037V199.68H364.917ZM369.277 193.2C368.423 193.2 367.783 192.973 367.357 192.52C366.957 192.067 366.757 191.493 366.757 190.8C366.757 190.107 366.957 189.533 367.357 189.08C367.783 188.627 368.423 188.4 369.277 188.4C370.13 188.4 370.757 188.627 371.157 189.08C371.583 189.533 371.797 190.107 371.797 190.8C371.797 191.493 371.583 192.067 371.157 192.52C370.757 192.973 370.13 193.2 369.277 193.2ZM388.541 218.72C386.675 218.72 385.061 218.4 383.701 217.76C382.341 217.12 381.235 216.28 380.381 215.24C379.528 214.173 378.888 212.987 378.461 211.68C378.061 210.373 377.861 209.04 377.861 207.68V206.96C377.861 205.573 378.061 204.227 378.461 202.92C378.888 201.613 379.528 200.44 380.381 199.4C381.235 198.333 382.315 197.493 383.621 196.88C384.955 196.24 386.515 195.92 388.301 195.92C390.621 195.92 392.528 196.427 394.021 197.44C395.541 198.427 396.661 199.707 397.381 201.28C398.128 202.853 398.501 204.533 398.501 206.32V208.04H379.541V205.16H395.701L394.821 206.72C394.821 205.2 394.581 203.893 394.101 202.8C393.621 201.68 392.901 200.813 391.941 200.2C390.981 199.587 389.768 199.28 388.301 199.28C386.781 199.28 385.515 199.627 384.501 200.32C383.515 201.013 382.768 201.96 382.261 203.16C381.781 204.36 381.541 205.747 381.541 207.32C381.541 208.84 381.781 210.213 382.261 211.44C382.768 212.64 383.541 213.6 384.581 214.32C385.621 215.013 386.941 215.36 388.541 215.36C390.221 215.36 391.581 214.987 392.621 214.24C393.688 213.493 394.328 212.627 394.541 211.64H398.141C397.848 213.107 397.261 214.373 396.381 215.44C395.501 216.507 394.395 217.32 393.061 217.88C391.728 218.44 390.221 218.72 388.541 218.72ZM403.953 218V196.64H406.993V205.8H406.513C406.513 203.693 406.793 201.92 407.353 200.48C407.94 199.013 408.82 197.907 409.993 197.16C411.167 196.387 412.647 196 414.433 196H414.593C417.287 196 419.273 196.84 420.553 198.52C421.86 200.2 422.513 202.627 422.513 205.8V218H418.673V205C418.673 203.347 418.207 202.027 417.273 201.04C416.34 200.027 415.06 199.52 413.433 199.52C411.753 199.52 410.393 200.04 409.353 201.08C408.313 202.12 407.793 203.507 407.793 205.24V218H403.953ZM438.699 218.72C436.859 218.72 435.259 218.4 433.899 217.76C432.566 217.12 431.459 216.267 430.579 215.2C429.699 214.107 429.033 212.907 428.579 211.6C428.153 210.293 427.939 208.987 427.939 207.68V206.96C427.939 205.6 428.153 204.267 428.579 202.96C429.033 201.653 429.699 200.48 430.579 199.44C431.486 198.373 432.606 197.52 433.939 196.88C435.273 196.24 436.833 195.92 438.619 195.92C440.406 195.92 442.006 196.253 443.419 196.92C444.859 197.587 446.006 198.533 446.859 199.76C447.739 200.96 448.233 202.387 448.339 204.04H444.659C444.473 202.707 443.859 201.6 442.819 200.72C441.779 199.813 440.379 199.36 438.619 199.36C437.099 199.36 435.833 199.707 434.819 200.4C433.806 201.093 433.046 202.04 432.539 203.24C432.033 204.44 431.779 205.8 431.779 207.32C431.779 208.787 432.033 210.133 432.539 211.36C433.046 212.56 433.806 213.52 434.819 214.24C435.859 214.933 437.153 215.28 438.699 215.28C439.899 215.28 440.939 215.067 441.819 214.64C442.699 214.213 443.406 213.64 443.939 212.92C444.473 212.2 444.793 211.387 444.899 210.48H448.579C448.499 212.16 448.006 213.613 447.099 214.84C446.219 216.067 445.046 217.027 443.579 217.72C442.139 218.387 440.513 218.72 438.699 218.72ZM462.877 218.72C461.011 218.72 459.397 218.4 458.037 217.76C456.677 217.12 455.571 216.28 454.717 215.24C453.864 214.173 453.224 212.987 452.797 211.68C452.397 210.373 452.197 209.04 452.197 207.68V206.96C452.197 205.573 452.397 204.227 452.797 202.92C453.224 201.613 453.864 200.44 454.717 199.4C455.571 198.333 456.651 197.493 457.957 196.88C459.291 196.24 460.851 195.92 462.637 195.92C464.957 195.92 466.864 196.427 468.357 197.44C469.877 198.427 470.997 199.707 471.717 201.28C472.464 202.853 472.837 204.533 472.837 206.32V208.04H453.877V205.16H470.037L469.157 206.72C469.157 205.2 468.917 203.893 468.437 202.8C467.957 201.68 467.237 200.813 466.277 200.2C465.317 199.587 464.104 199.28 462.637 199.28C461.117 199.28 459.851 199.627 458.837 200.32C457.851 201.013 457.104 201.96 456.597 203.16C456.117 204.36 455.877 205.747 455.877 207.32C455.877 208.84 456.117 210.213 456.597 211.44C457.104 212.64 457.877 213.6 458.917 214.32C459.957 215.013 461.277 215.36 462.877 215.36C464.557 215.36 465.917 214.987 466.957 214.24C468.024 213.493 468.664 212.627 468.877 211.64H472.477C472.184 213.107 471.597 214.373 470.717 215.44C469.837 216.507 468.731 217.32 467.397 217.88C466.064 218.44 464.557 218.72 462.877 218.72ZM497.431 218.72C495.004 218.72 492.938 218.32 491.231 217.52C489.524 216.72 488.218 215.613 487.311 214.2C486.404 212.787 485.951 211.187 485.951 209.4H489.871C489.871 210.28 490.098 211.16 490.551 212.04C491.031 212.92 491.818 213.653 492.911 214.24C494.031 214.827 495.538 215.12 497.431 215.12C499.191 215.12 500.631 214.867 501.751 214.36C502.871 213.827 503.698 213.147 504.231 212.32C504.764 211.467 505.031 210.547 505.031 209.56C505.031 208.36 504.511 207.373 503.471 206.6C502.431 205.8 500.911 205.307 498.911 205.12L495.671 204.84C493.084 204.627 491.018 203.827 489.471 202.44C487.924 201.053 487.151 199.227 487.151 196.96C487.151 195.173 487.578 193.613 488.431 192.28C489.311 190.947 490.524 189.907 492.071 189.16C493.618 188.387 495.418 188 497.471 188C499.498 188 501.284 188.373 502.831 189.12C504.378 189.867 505.578 190.92 506.431 192.28C507.311 193.613 507.751 195.213 507.751 197.08H503.831C503.831 196.147 503.604 195.267 503.151 194.44C502.724 193.613 502.044 192.933 501.111 192.4C500.178 191.867 498.964 191.6 497.471 191.6C496.031 191.6 494.831 191.853 493.871 192.36C492.938 192.867 492.231 193.533 491.751 194.36C491.298 195.16 491.071 196.027 491.071 196.96C491.071 198.027 491.484 198.973 492.311 199.8C493.138 200.627 494.364 201.107 495.991 201.24L499.231 201.52C501.231 201.68 502.951 202.107 504.391 202.8C505.858 203.467 506.978 204.373 507.751 205.52C508.551 206.64 508.951 207.987 508.951 209.56C508.951 211.347 508.471 212.933 507.511 214.32C506.551 215.707 505.204 216.787 503.471 217.56C501.738 218.333 499.724 218.72 497.431 218.72ZM523.289 218.24C521.689 218.24 520.302 218.013 519.129 217.56C517.982 217.107 517.089 216.333 516.449 215.24C515.836 214.12 515.529 212.613 515.529 210.72V190.16H519.209V211.2C519.209 212.347 519.516 213.24 520.129 213.88C520.769 214.493 521.662 214.8 522.809 214.8H526.569V218.24H523.289ZM511.849 199.52V196.64H526.569V199.52H511.849ZM539.4 218.64C536.867 218.64 534.92 217.813 533.56 216.16C532.2 214.507 531.52 212.12 531.52 209V196.6H535.36V209.76C535.36 211.44 535.814 212.76 536.72 213.72C537.627 214.653 538.854 215.12 540.4 215.12C542 215.12 543.307 214.613 544.32 213.6C545.334 212.56 545.84 211.147 545.84 209.36V196.6H549.68V218H546.64V208.84H547.12C547.12 210.947 546.84 212.733 546.28 214.2C545.72 215.64 544.88 216.747 543.76 217.52C542.667 218.267 541.267 218.64 539.56 218.64H539.4ZM566.038 218.72C564.518 218.72 563.118 218.44 561.838 217.88C560.558 217.32 559.438 216.533 558.478 215.52C557.544 214.507 556.811 213.333 556.278 212C555.771 210.667 555.518 209.227 555.518 207.68V206.96C555.518 205.44 555.771 204.013 556.278 202.68C556.784 201.347 557.491 200.173 558.398 199.16C559.331 198.147 560.424 197.36 561.678 196.8C562.958 196.213 564.371 195.92 565.918 195.92C567.544 195.92 569.024 196.267 570.358 196.96C571.691 197.627 572.784 198.68 573.637 200.12C574.491 201.56 574.971 203.427 575.078 205.72L573.478 203.16V188.8H577.318V218H574.278V208.52H575.398C575.291 210.947 574.784 212.92 573.878 214.44C572.971 215.933 571.824 217.027 570.438 217.72C569.078 218.387 567.611 218.72 566.038 218.72ZM566.558 215.36C567.864 215.36 569.051 215.067 570.118 214.48C571.184 213.893 572.038 213.053 572.678 211.96C573.318 210.84 573.637 209.533 573.637 208.04V206.2C573.637 204.733 573.304 203.493 572.638 202.48C571.998 201.44 571.131 200.653 570.038 200.12C568.971 199.56 567.798 199.28 566.518 199.28C565.104 199.28 563.851 199.613 562.758 200.28C561.691 200.947 560.851 201.88 560.238 203.08C559.651 204.28 559.358 205.693 559.358 207.32C559.358 208.947 559.664 210.373 560.278 211.6C560.891 212.8 561.744 213.733 562.838 214.4C563.931 215.04 565.171 215.36 566.558 215.36ZM593.776 218.72C591.909 218.72 590.296 218.4 588.936 217.76C587.576 217.12 586.469 216.28 585.616 215.24C584.762 214.173 584.122 212.987 583.696 211.68C583.296 210.373 583.096 209.04 583.096 207.68V206.96C583.096 205.573 583.296 204.227 583.696 202.92C584.122 201.613 584.762 200.44 585.616 199.4C586.469 198.333 587.549 197.493 588.856 196.88C590.189 196.24 591.749 195.92 593.536 195.92C595.856 195.92 597.762 196.427 599.256 197.44C600.776 198.427 601.896 199.707 602.616 201.28C603.362 202.853 603.736 204.533 603.736 206.32V208.04H584.776V205.16H600.936L600.056 206.72C600.056 205.2 599.816 203.893 599.336 202.8C598.856 201.68 598.136 200.813 597.176 200.2C596.216 199.587 595.002 199.28 593.536 199.28C592.016 199.28 590.749 199.627 589.736 200.32C588.749 201.013 588.002 201.96 587.496 203.16C587.016 204.36 586.776 205.747 586.776 207.32C586.776 208.84 587.016 210.213 587.496 211.44C588.002 212.64 588.776 213.6 589.816 214.32C590.856 215.013 592.176 215.36 593.776 215.36C595.456 215.36 596.816 214.987 597.856 214.24C598.922 213.493 599.562 212.627 599.776 211.64H603.376C603.082 213.107 602.496 214.373 601.616 215.44C600.736 216.507 599.629 217.32 598.296 217.88C596.962 218.44 595.456 218.72 593.776 218.72ZM609.188 218V196.64H612.228V205.8H611.748C611.748 203.693 612.028 201.92 612.588 200.48C613.174 199.013 614.054 197.907 615.228 197.16C616.401 196.387 617.881 196 619.668 196H619.828C622.521 196 624.508 196.84 625.788 198.52C627.094 200.2 627.748 202.627 627.748 205.8V218H623.908V205C623.908 203.347 623.441 202.027 622.508 201.04C621.574 200.027 620.294 199.52 618.668 199.52C616.988 199.52 615.628 200.04 614.588 201.08C613.548 202.12 613.028 203.507 613.028 205.24V218H609.188ZM643.094 218.24C641.494 218.24 640.107 218.013 638.934 217.56C637.787 217.107 636.894 216.333 636.254 215.24C635.64 214.12 635.334 212.613 635.334 210.72V190.16H639.014V211.2C639.014 212.347 639.32 213.24 639.934 213.88C640.574 214.493 641.467 214.8 642.614 214.8H646.374V218.24H643.094ZM631.654 199.52V196.64H646.374V199.52H631.654ZM658.649 218.64C655.849 218.64 653.675 218.04 652.129 216.84C650.609 215.64 649.822 214 649.769 211.92H653.369C653.422 212.747 653.835 213.533 654.609 214.28C655.409 215 656.755 215.36 658.649 215.36C660.355 215.36 661.662 215.027 662.569 214.36C663.475 213.667 663.929 212.827 663.929 211.84C663.929 210.96 663.595 210.28 662.929 209.8C662.262 209.293 661.182 208.96 659.689 208.8L657.369 208.56C655.342 208.347 653.689 207.747 652.409 206.76C651.129 205.747 650.489 204.333 650.489 202.52C650.489 201.16 650.835 200 651.529 199.04C652.222 198.053 653.182 197.307 654.409 196.8C655.635 196.267 657.049 196 658.649 196C661.049 196 662.995 196.533 664.489 197.6C665.982 198.667 666.755 200.253 666.809 202.36H663.209C663.182 201.507 662.782 200.787 662.009 200.2C661.262 199.587 660.142 199.28 658.649 199.28C657.155 199.28 656.022 199.587 655.249 200.2C654.475 200.813 654.089 201.587 654.089 202.52C654.089 203.32 654.355 203.96 654.889 204.44C655.449 204.92 656.355 205.227 657.609 205.36L659.929 205.6C662.222 205.84 664.062 206.48 665.449 207.52C666.835 208.533 667.529 209.973 667.529 211.84C667.529 213.173 667.142 214.36 666.369 215.4C665.622 216.413 664.582 217.213 663.249 217.8C661.915 218.36 660.382 218.64 658.649 218.64Z" fill="white"></path></svg>